:version 1.10
:name ASF
:units
  mass 1
  length 1
  angle deg
:documentation
  ASF file generated by Kaydara
:root
  axis xyz
  order  tx ty tz rx ry rz
  position 0 0 0
  orientation 0 0 0
:bonedata
  begin
    id 1
    name RightUpLegDummy
    direction -0.718183 -0.695806 0.00816078
    length 4.904
    axis 0 0 0 xyz
  end
  begin
    id 2
    name RightUpLeg
    direction 3.53373e-006 -0.995788 0.0916898
    length 17.4976
    axis -3.49089 -0.000906625 0.000286804 xyz
    dof rx ry rz
  end
  begin
    id 3
    name RightLeg
    direction 0.00371092 -0.995096 -0.0988419
    length 16.5821
    axis 3.68512 0.0193738 -0.131023 xyz
    dof rx ry rz
  end
  begin
    id 4
    name RightFoot
    direction 0.00079151 -0.46099 0.887405
    length 3.77069
    axis 4.81691e-005 -0.120479 -0.188788 xyz
    dof rx ry rz
  end
  begin
    id 5
    name RightToes
    direction 0 0 0
    length 0
    axis 0 0 0 xyz
    dof rx ry rz
  end
  begin
    id 6
    name SpineDummy
    direction 8.3039e-015 1 4.57515e-016
    length 4.6813
    axis 0 0 0 xyz
  end
  begin
    id 7
    name Spine
    direction -3.15643e-008 0.999988 0.00495137
    length 10.1015
    axis -0.001389 0.000121418 2.40972e-006 xyz
    dof rx ry rz
  end
  begin
    id 8
    name Spine1
    direction 0 0 0
    length 0
    axis -0.001389 0.000121451 1.30017e-006 xyz
    dof rx ry rz
  end
  begin
    id 9
    name HEadDummy
    direction -1.99912e-008 0.999999 0.00127422
    length 3.43865
    axis -0.001389 0.000121451 1.30017e-006 xyz
  end
  begin
    id 10
    name HEad
    direction 0 0 0
    length 0
    axis 0 0 0 xyz
    dof rx ry rz
  end
  begin
    id 11
    name LeftShoulder1Dummy
    direction 0.998891 -0.0402509 -0.0244456
    length 3.5433
    axis -0.001389 0.000121451 1.30017e-006 xyz
  end
  begin
    id 12
    name LeftShoulder1
    direction 0.99951 -0.000327763 0.0313091
    length 4.05031
    axis -0.001389 0.000121451 1.30017e-006 xyz
    dof rx ry rz
  end
  begin
    id 13
    name LeftArm
    direction 0.998561 -0.00100056 -0.0536182
    length 10.3537
    axis -23.1894 0.134784 0.967509 xyz
    dof rx ry rz
  end
  begin
    id 14
    name LeftForeArm
    direction 0.998903 0.00866432 0.046012
    length 8.70632
    axis -9.91835 -0.06569 -0.177794 xyz
    dof rx ry rz
  end
  begin
    id 15
    name LeftHand
    direction 0 0 0
    length 0
    axis 0 0 0 xyz
    dof rx ry rz
  end
  begin
    id 16
    name RightShoulderDummy
    direction -0.998891 -0.0402509 -0.0244414
    length 3.5433
    axis -0.001389 0.000121451 1.30017e-006 xyz
  end
  begin
    id 17
    name RightShoulder
    direction -0.99951 -0.000327807 0.0313133
    length 4.05031
    axis 0.215806 0.000203643 -0.0068026 xyz
    dof rx ry rz
  end
  begin
    id 18
    name RightArm
    direction -0.998573 -0.000999564 -0.053403
    length 10.3947
    axis -23.2009 -0.134239 -0.964101 xyz
    dof rx ry rz
  end
  begin
    id 19
    name RightForeArm
    direction -0.998898 0.00868028 0.0461306
    length 8.68355
    axis -9.92322 0.0658061 0.178868 xyz
    dof rx ry rz
  end
  begin
    id 20
    name RightHand
    direction 0 0 0
    length 0
    axis 0 0 0 xyz
    dof rx ry rz
  end
  begin
    id 21
    name LeftUpLegDummy
    direction 0.718183 -0.695806 0.00816078
    length 4.904
    axis 0 0 0 xyz
  end
  begin
    id 22
    name LeftUpLeg
    direction -6.81752e-006 -0.995793 0.0916337
    length 17.4976
    axis -3.48766 0.00143442 -0.000524262 xyz
    dof rx ry rz
  end
  begin
    id 23
    name LeftLeg
    direction -0.00601358 -0.995091 -0.0987824
    length 16.5821
    axis 3.68178 -0.00654042 -0.000285133 xyz
    dof rx ry rz
  end
  begin
    id 24
    name LeftFoot
    direction -0.00417578 -0.460984 0.887399
    length 3.77069
    axis 1.87233e-006 4.66016e-005 -8.6538e-006 xyz
    dof rx ry rz
  end
  begin
    id 25
    name LeftToes
    direction 0 0 0
    length 0
    axis 0 0 0 xyz
    dof rx ry rz
  end
:hierarchy
  begin
    root RightUpLegDummy SpineDummy LeftUpLegDummy
    RightUpLegDummy RightUpLeg
    RightUpLeg RightLeg
    RightLeg RightFoot
    RightFoot RightToes
    SpineDummy Spine
    Spine Spine1
    Spine1 HEadDummy LeftShoulder1Dummy RightShoulderDummy
    HEadDummy HEad
    LeftShoulder1Dummy LeftShoulder1
    LeftShoulder1 LeftArm
    LeftArm LeftForeArm
    LeftForeArm LeftHand
    RightShoulderDummy RightShoulder
    RightShoulder RightArm
    RightArm RightForeArm
    RightForeArm RightHand
    LeftUpLegDummy LeftUpLeg
    LeftUpLeg LeftLeg
    LeftLeg LeftFoot
    LeftFoot LeftToes
  end

:SAMPLES-PER-SECOND 30
:FULLY-SPECIFIED
:DEGREES
48
root  65.8375 39.2421 -1.78213 -176.406 -80.4003 175.917
RightUpLeg  -17.9462 -10.1596 -5.97378
RightLeg  8.0137 -1.0933 2.70692
RightFoot  8.27573 -0.495837 3.17914
RightToes  0.000481921 0.542163 -0.142578
Spine  2.61488 -0.580406 3.31633
Spine1  10.7553 -0.270482 -1.94573
HEad  18.3037 12.4247 -11.8655
LeftShoulder1  10.4265 -14.5052 -50.543
LeftArm  -0.805649 4.0635 -23.3381
LeftForeArm  30.1599 -17.4264 -4.79253
LeftHand  -0.25398 0.0180481 5.50724
RightShoulder  5.09895 9.39795 33.5772
RightArm  -11.4587 -10.2762 35.9384
RightForeArm  -6.65908 8.07665 7.34013
RightHand  -1.89377 6.24973 -19.1171
LeftUpLeg  9.69284 7.25646 2.76384
LeftLeg  10.1074 15.4209 -1.51654
LeftFoot  -16.7233 -0.137723 -5.05596
LeftToes  1.06246e-005 4.65868e-005 -8.65513e-006
49
root  65.0389 39.2217 -2.2213 178.414 -80.9998 -179.442
RightUpLeg  -17.6104 -12.154 -4.43141
RightLeg  11.04 0.945047 2.54125
RightFoot  8.04603 -0.161366 1.25309
RightToes  0.000481921 0.542163 -0.142578
Spine  3.32878 -0.755781 4.78904
Spine1  10.2611 -0.580728 -1.36829
HEad  17.8973 11.7733 -11.2549
LeftShoulder1  10.4683 -14.5538 -50.6086
LeftArm  -0.998141 4.10565 -23.7154
LeftForeArm  29.3854 -18.3005 -4.4603
LeftHand  -0.25398 0.0180481 5.50724
RightShoulder  5.1339 9.42863 33.7523
RightArm  -10.8737 -9.5714 35.6299
RightForeArm  -5.36213 7.79568 7.39869
RightHand  -1.85182 6.27814 -18.6672
LeftUpLeg  11.2311 8.4636 4.59608
LeftLeg  11.0005 13.1109 -0.73997
LeftFoot  -16.53 -0.206741 -6.75428
LeftToes  1.06246e-005 4.65868e-005 -8.65513e-006
50
root  64.2563 39.2619 -2.70528 174 -81.9634 -175.522
RightUpLeg  -16.8285 -13.9499 -3.21877
RightLeg  13.6099 1.88738 2.07433
RightFoot  5.9225 0.0337357 0.0460064
RightToes  0.000481921 0.542163 -0.142578
Spine  3.92314 -1.09826 5.39206
Spine1  9.88174 -1.1932 -0.22674
HEad  17.8967 11.2343 -10.2171
LeftShoulder1  10.5039 -14.7188 -50.3245
LeftArm  -1.16806 4.37894 -24.5002
LeftForeArm  28.8999 -18.9117 -4.24449
LeftHand  -0.25398 0.0180481 5.50724
RightShoulder  5.16329 9.42978 33.9738
RightArm  -10.5481 -8.2452 35.5815
RightForeArm  -2.54966 6.90372 7.27274
RightHand  -1.82277 6.71194 -17.7675
LeftUpLeg  12.1039 10.2508 6.51647
LeftLeg  12.7327 9.77719 0.295064
LeftFoot  -15.3163 -0.206465 -8.61311
LeftToes  1.06246e-005 4.65868e-005 -8.65513e-006
51
root  63.4953 39.3527 -3.23104 171.501 -83.3742 -173.184
RightUpLeg  -15.803 -14.6356 -2.71532
RightLeg  15.2148 0.931768 1.51495
RightFoot  3.77783 0.143102 -0.880623
RightToes  0.000481921 0.542163 -0.142578
Spine  3.89731 -1.55661 5.08713
Spine1  9.75862 -2.03395 1.36681
HEad  18.6891 10.6058 -8.57308
LeftShoulder1  10.4901 -14.8808 -49.8188
LeftArm  -0.855896 4.52634 -25.3669
LeftForeArm  28.7458 -19.0523 -4.22161
LeftHand  -0.25398 0.0180481 5.50724
RightShoulder  5.21537 9.47519 34.233
RightArm  -10.2998 -6.81554 35.8825
RightForeArm  0.0569786 6.22276 7.1577
RightHand  -1.83515 7.46402 -16.883
LeftUpLeg  11.9084 11.7926 8.06586
LeftLeg  15.1629 6.29916 1.36131
LeftFoot  -13.3332 -0.108441 -10.8936
LeftToes  1.06246e-005 4.65868e-005 -8.65513e-006
52
root  62.7549 39.4493 -3.75257 170.36 -84.7744 -171.938
RightUpLeg  -14.8522 -14.706 -2.56534
RightLeg  16.2286 -0.571908 1.1297
RightFoot  2.17731 0.227422 -1.79135
RightToes  0.000481921 0.542163 -0.142578
Spine  3.54348 -1.92583 4.69636
Spine1  9.69458 -2.68619 2.83096
HEad  20.2162 9.4355 -6.40948
LeftShoulder1  10.4267 -14.9566 -49.3153
LeftArm  -0.0242796 4.40965 -26.1115
LeftForeArm  29.2313 -18.906 -4.30378
LeftHand  -0.25398 0.0180481 5.50724
RightShoulder  5.224 9.46375 34.3337
RightArm  -9.86717 -5.83398 36.6562
RightForeArm  0.190142 6.7303 7.33001
RightHand  -1.88691 7.70557 -17.0409
LeftUpLeg  10.7194 11.6272 8.9577
LeftLeg  18.3525 4.83303 2.16044
LeftFoot  -10.9486 0.11231 -13.2402
LeftToes  1.06246e-005 4.65868e-005 -8.65513e-006
53
root  62.04 39.5248 -4.2319 169.958 -85.9151 -171.455
RightUpLeg  -13.8937 -14.9176 -2.52384
RightLeg  17.0961 -1.54954 0.965088
RightFoot  0.551352 0.26518 -2.5061
RightToes  0.000481921 0.542163 -0.142578
Spine  3.34215 -2.13337 4.72473
Spine1  9.55988 -2.95781 3.66145
HEad  21.8771 7.646 -4.02191
LeftShoulder1  10.3688 -15.0151 -48.8854
LeftArm  0.797979 4.28324 -26.787
LeftForeArm  30.2955 -19.0889 -4.24578
LeftHand  -0.25398 0.0180481 5.50724
RightShoulder  5.18344 9.40697 34.1984
RightArm  -8.81986 -5.24775 37.7192
RightForeArm  -1.78857 8.38695 7.73539
RightHand  -1.95551 7.31706 -18.146
LeftUpLeg  8.94442 9.99329 9.32524
LeftLeg  22.3282 5.70362 2.90945
LeftFoot  -7.79545 0.479591 -14.0784
LeftToes  1.06246e-005 4.65868e-005 -8.65513e-006
54
root  61.3745 39.5766 -4.65442 169.022 -87.0486 -170.587
RightUpLeg  -12.7744 -15.3886 -2.55917
RightLeg  17.8743 -2.25969 0.861723
RightFoot  -1.19732 0.2539 -2.94791
RightToes  0.000481921 0.542163 -0.142578
Spine  3.4489 -2.35309 5.05053
Spine1  9.45348 -3.11971 4.00293
HEad  23.1472 5.73455 -1.83354
LeftShoulder1  10.362 -15.1224 -48.5696
LeftArm  1.2172 4.38853 -27.4118
LeftForeArm  31.1199 -20.0876 -3.9016
LeftHand  -0.25398 0.0180481 5.50724
RightShoulder  5.16031 9.43308 33.9413
RightArm  -6.32898 -4.46214 38.6289
RightForeArm  -3.68992 10.4564 8.05485
RightHand  -1.95984 6.9411 -18.7051
LeftUpLeg  6.75892 8.52506 9.41929
LeftLeg  26.9522 7.01891 4.20394
LeftFoot  -3.93451 0.820295 -12.3798
LeftToes  1.06246e-005 4.65868e-005 -8.65513e-006
55
root  60.7799 39.5965 -5.01875 157.223 -88.3768 -158.952
RightUpLeg  -11.6305 -15.815 -2.63621
RightLeg  18.6258 -3.26813 0.712736
RightFoot  -2.72269 0.228847 -3.27831
RightToes  0.000481921 0.542163 -0.142578
Spine  3.80697 -2.71539 5.42909
Spine1  9.45552 -3.44047 4.36518
HEad  24.0954 4.11032 -0.155038
LeftShoulder1  10.4001 -15.2317 -48.4632
LeftArm  1.18609 4.65181 -27.8795
LeftForeArm  31.2645 -21.8137 -3.50146
LeftHand  -0.25398 0.0180481 5.50724
RightShoulder  5.1401 9.46608 33.6856
RightArm  -2.01902 -3.08658 39.0933
RightForeArm  -4.81801 12.6555 8.12847
RightHand  -1.85393 6.76566 -17.9749
LeftUpLeg  4.20151 7.02577 9.2895
LeftLeg  31.9598 8.29922 5.89029
LeftFoot  -1.06312 0.838729 -9.20382
LeftToes  1.06246e-005 4.65868e-005 -8.65513e-006
56
root  60.2374 39.6095 -5.33895 150.821 -89.6514 -152.751
RightUpLeg  -10.4881 -16.0933 -2.76267
RightLeg  19.1829 -4.33936 0.570529
RightFoot  -3.932 0.203177 -3.54472
RightToes  0.000481921 0.542163 -0.142578
Spine  4.36039 -3.01241 5.71896
Spine1  9.41067 -3.72072 4.77027
HEad  25.0621 2.67044 1.0685
LeftShoulder1  10.458 -15.3044 -48.5451
LeftArm  0.573553 4.93929 -28.172
LeftForeArm  31.6177 -23.8454 -3.45264
LeftHand  -0.25398 0.0180481 5.50724
RightShoulder  5.04955 9.28963 33.5258
RightArm  3.89924 -1.3057 39.1321
RightForeArm  -7.14067 15.2427 7.82326
RightHand  -1.73258 6.49898 -17.2045
LeftUpLeg  1.72289 5.9074 8.97316
LeftLeg  36.4095 9.10794 7.49533
LeftFoot  -0.670973 0.62121 -6.5642
LeftToes  1.06246e-005 4.65868e-005 -8.65513e-006
57
root  59.7185 39.6457 -5.62938 24.8148 -89.2893 -26.9149
RightUpLeg  -9.31625 -16.2958 -2.99594
RightLeg  19.3852 -5.03578 0.490062
RightFoot  -5.00424 0.168601 -3.65207
RightToes  0.000481921 0.542163 -0.142578
Spine  4.92308 -3.0185 5.88394
Spine1  9.27995 -3.68251 4.90271
HEad  26.1758 1.24774 2.05993
LeftShoulder1  10.5178 -15.3731 -48.6459
LeftArm  -0.665223 5.31966 -28.4127
LeftForeArm  33.1407 -25.9055 -3.79715
LeftHand  -0.25398 0.0180481 5.50724
RightShoulder  4.92524 8.98111 33.5059
RightArm  9.73561 0.54727 38.8499
RightForeArm  -10.6637 17.7799 7.18538
RightHand  -1.67978 6.08507 -17.2683
LeftUpLeg  -0.356317 5.37152 8.34609
LeftLeg  39.3035 9.42842 8.54025
LeftFoot  -2.14263 0.458065 -5.54901
LeftToes  1.06246e-005 4.65868e-005 -8.65513e-006
58
root  59.2184 39.7036 -5.89008 -12.7811 -88.7542 10.6484
RightUpLeg  -8.23936 -16.3601 -3.35498
RightLeg  19.3313 -5.53718 0.448753
RightFoot  -5.93139 0.131311 -3.6254
RightToes  0.000481921 0.542163 -0.142578
Spine  5.1734 -2.85093 5.9401
Spine1  9.30255 -3.45929 4.75353
HEad  27.4054 -0.229276 2.84248
LeftShoulder1  10.5512 -15.4324 -48.6475
LeftArm  -2.03684 5.88677 -28.6939
LeftForeArm  35.321 -27.8953 -4.11621
LeftHand  -0.25398 0.0180481 5.50724
RightShoulder  4.88509 8.88056 33.5018
RightArm  13.4365 2.39483 38.3889
RightForeArm  -12.8025 19.2014 6.75314
RightHand  -1.66232 5.82084 -17.4747
LeftUpLeg  -2.19736 5.08607 7.38129
LeftLeg  40.2788 9.36481 8.77383
LeftFoot  -3.75549 0.424679 -6.07568
LeftToes  1.06246e-005 4.65868e-005 -8.65513e-006
59
root  58.7414 39.768 -6.11812 -21.4835 -87.9921 19.506
RightUpLeg  -7.34498 -16.2113 -3.79694
RightLeg  19.1444 -6.22029 0.470068
RightFoot  -6.59512 0.105259 -3.61453
RightToes  0.000481921 0.542163 -0.142578
Spine  5.02216 -2.72362 5.93274
Spine1  9.55516 -3.30713 4.54021
HEad  28.8107 -1.76011 3.32397
LeftShoulder1  10.5358 -15.4295 -48.5831
LeftArm  -3.40972 6.58384 -28.934
LeftForeArm  37.4726 -29.6436 -4.39132
LeftHand  -0.25398 0.0180481 5.50724
RightShoulder  4.93709 9.06444 33.3398
RightArm  14.9023 4.18002 37.9631
RightForeArm  -12.8544 19.2628 6.78182
RightHand  -1.63489 5.79562 -17.2346
LeftUpLeg  -4.06086 4.82891 6.26601
LeftLeg  39.6586 9.0759 8.34699
LeftFoot  -4.72787 0.449772 -7.28479
LeftToes  1.06246e-005 4.65868e-005 -8.65513e-006
60
root  58.2841 39.8308 -6.31816 -23.7024 -87.1371 21.9819
RightUpLeg  -6.48095 -15.8975 -4.2716
RightLeg  18.7543 -7.11118 0.64158
RightFoot  -7.10656 0.0873638 -3.66086
RightToes  0.000481921 0.542163 -0.142578
Spine  4.78701 -2.59735 5.96185
Spine1  9.71899 -3.14346 4.23896
HEad  30.4242 -3.36805 3.63928
LeftShoulder1  10.4912 -15.3811 -48.5011
LeftArm  -4.3993 7.392 -29.0337
LeftForeArm  38.8797 -31.0464 -4.63658
LeftHand  -0.25398 0.0180481 5.50724
RightShoulder  4.97505 9.24293 33.0877
RightArm  14.9072 5.60168 37.6187
RightForeArm  -12.1658 18.6856 7.04098
RightHand  -1.61968 5.82142 -17.0429
LeftUpLeg  -5.91476 4.9211 5.22249
LeftLeg  37.9394 8.70442 7.57437
LeftFoot  -5.3549 0.460919 -8.18619
LeftToes  1.06246e-005 4.65868e-005 -8.65513e-006
61
root  57.8393 39.892 -6.49441 -25.1704 -86.3996 23.6961
RightUpLeg  -5.44718 -15.4132 -4.78343
RightLeg  18.0286 -8.13132 0.988768
RightFoot  -7.64316 0.0653837 -3.62211
RightToes  0.000481921 0.542163 -0.142578
Spine  4.7888 -2.33103 6.07176
Spine1  9.53716 -2.75727 3.67628
HEad  31.9782 -5.03176 4.04744
LeftShoulder1  10.4543 -15.3553 -48.3954
LeftArm  -4.94166 8.43903 -28.9347
LeftForeArm  39.558 -32.1979 -4.8688
LeftHand  -0.25398 0.0180481 5.50724
RightShoulder  4.96069 9.23337 33.0049
RightArm  14.0547 6.38602 37.1879
RightForeArm  -11.7324 18.1619 7.26064
RightHand  -1.62516 5.7238 -17.2408
LeftUpLeg  -7.62495 5.7239 4.28463
LeftLeg  35.4717 8.32 6.67386
LeftFoot  -5.78331 0.442412 -8.38849
LeftToes  1.06246e-005 4.65868e-005 -8.65513e-006
